<?xml version="1.0" encoding="UTF-8"?>
<svg width="512px" height="512px" viewBox="0 0 512 512" version="1.1" xmlns="http://www.w3.org/2000/svg" xmlns:xlink="http://www.w3.org/1999/xlink">
    <!-- Generator: Sketch 49.1 (51147) - http://www.bohemiancoding.com/sketch -->
    <title>logo</title>
    <desc>Created with Sketch.</desc>
    <defs>
        <linearGradient x1="10.9318929%" y1="41.5042124%" x2="88.1541567%" y2="90.6739812%" id="linearGradient-1">
            <stop stop-color="#5D95D9" offset="0%"></stop>
            <stop stop-color="#135EBA" offset="100%"></stop>
        </linearGradient>
        <path d="M85.1650087,56 L96.2839466,24 C100.889562,10.745166 115.368316,0 128.62315,0 L288.62315,0 C301.877984,0 316.356739,10.745166 320.962353,24 L332.081291,56 L394,56 C407.254834,56 418,66.745166 418,80 L418,295 C418,308.254834 407.254834,319 394,319 L24,319 C10.745166,319 1.623249e-15,308.254834 0,295 L0,80 C-1.623249e-15,66.745166 10.745166,56 24,56 L85.1650087,56 Z" id="path-2"></path>
        <filter x="-3.9%" y="-5.2%" width="109.3%" height="112.2%" filterUnits="objectBoundingBox" id="filter-3">
            <feOffset dx="3" dy="3" in="SourceAlpha" result="shadowOffsetOuter1"></feOffset>
            <feGaussianBlur stdDeviation="6" in="shadowOffsetOuter1" result="shadowBlurOuter1"></feGaussianBlur>
            <feColorMatrix values="0 0 0 0 0   0 0 0 0 0.18   0 0 0 0 0.4  0 0 0 0.5 0" type="matrix" in="shadowBlurOuter1"></feColorMatrix>
        </filter>
    </defs>
    <g id="logo" stroke="none" stroke-width="1" fill="none" fill-rule="evenodd">
        <g transform="translate(47.000000, 97.000000)">
            <g id="Rectangle">
                <use fill="black" fill-opacity="1" filter="url(#filter-3)" xlink:href="#path-2"></use>
                <use fill="url(#linearGradient-1)" fill-rule="evenodd" xlink:href="#path-2"></use>
            </g>
            <circle id="Oval" fill="#A4C1E5" fill-rule="evenodd" cx="209.325525" cy="176.325525" r="118.325525"></circle>
            <path d="M193.478012,273.072784 C146.150808,265.459957 110,224.429245 110,174.955059 C110,139.067454 129.021715,107.622607 157.532954,90.1527122 L159.817788,151.218946 C159.862627,152.417338 160.336693,153.559697 161.153541,154.437715 C163.034466,156.459492 166.198231,156.573675 168.220008,154.69275 L177.77507,145.803365 C178.85361,144.799964 180.319741,144.323235 181.78216,144.500413 C184.523538,144.832543 186.476619,147.324113 186.144489,150.065491 L180.310126,198.221937 C180.190162,199.212111 180.369082,200.215536 180.823886,201.103224 C182.083046,203.56086 185.096106,204.532416 187.553742,203.273255 L196.637181,198.619389 C197.567749,198.142615 198.624372,197.969569 199.658411,198.124593 C202.389315,198.534012 204.271251,201.079747 203.861832,203.810651 L193.478012,273.072784 Z M241.195393,80.7717204 C280.481741,94.036437 308.767366,131.192517 308.767366,174.955059 C308.767366,228.699093 266.107331,272.479341 212.802006,274.281058 L259.614536,143.167727 C259.807193,142.628132 259.905672,142.059438 259.905672,141.486481 C259.905672,138.725057 257.667095,136.486481 254.905672,136.486481 L242.070694,136.486481 C241.934878,136.486481 241.799118,136.480947 241.663751,136.469893 C238.911489,136.245144 236.862534,133.8318 237.087282,131.079538 L241.195393,80.7717204 Z" id="Oval" fill="#051A33" fill-rule="evenodd"></path>
        </g>
    </g>
</svg>